<mxfile host="app.diagrams.net" modified="2024-07-11T20:41:04.303Z" agent="Mozilla/5.0 (Windows NT 10.0; Win64; x64) AppleWebKit/537.36 (KHTML, like Gecko) Chrome/126.0.0.0 Safari/537.36" etag="5pZdD9WHeYSt5czSWPvK" version="24.6.5" type="device">
  <diagram id="R2lEEEUBdFMjLlhIrx00" name="Page-1">
    <mxGraphModel dx="4075" dy="2425" grid="1" gridSize="10" guides="1" tooltips="1" connect="1" arrows="1" fold="1" page="1" pageScale="1" pageWidth="850" pageHeight="1100" math="0" shadow="0" extFonts="Permanent Marker^https://fonts.googleapis.com/css?family=Permanent+Marker">
      <root>
        <mxCell id="0" />
        <mxCell id="1" parent="0" />
        <mxCell id="6ZVJv1t7tKq6ZZ9v9irW-252" value="&lt;span style=&quot;font-size: 12px; font-weight: 700; text-wrap: nowrap;&quot;&gt;MessageList&lt;/span&gt;" style="shape=ext;margin=3;double=1;whiteSpace=wrap;html=1;align=center;rounded=1;shadow=0;dashed=0;strokeColor=default;strokeWidth=2;verticalAlign=middle;arcSize=4;fontFamily=Helvetica;fontSize=14;fontColor=default;fontStyle=0;fillColor=default;" parent="1" vertex="1">
          <mxGeometry x="1875" y="65" width="100" height="70" as="geometry" />
        </mxCell>
        <mxCell id="C-vyLk0tnHw3VtMMgP7b-23" value="User" style="shape=table;startSize=20;container=1;collapsible=1;childLayout=tableLayout;fixedRows=1;rowLines=0;fontStyle=1;align=center;resizeLast=1;" parent="1" vertex="1">
          <mxGeometry x="130" y="130" width="400" height="260" as="geometry" />
        </mxCell>
        <mxCell id="C-vyLk0tnHw3VtMMgP7b-24" value="" style="shape=partialRectangle;collapsible=0;dropTarget=0;pointerEvents=0;fillColor=none;points=[[0,0.5],[1,0.5]];portConstraint=eastwest;top=0;left=0;right=0;bottom=1;" parent="C-vyLk0tnHw3VtMMgP7b-23" vertex="1">
          <mxGeometry y="20" width="400" height="30" as="geometry" />
        </mxCell>
        <mxCell id="C-vyLk0tnHw3VtMMgP7b-25" value="PK" style="shape=partialRectangle;overflow=hidden;connectable=0;fillColor=none;top=0;left=0;bottom=0;right=0;fontStyle=1;" parent="C-vyLk0tnHw3VtMMgP7b-24" vertex="1">
          <mxGeometry width="30" height="30" as="geometry">
            <mxRectangle width="30" height="30" as="alternateBounds" />
          </mxGeometry>
        </mxCell>
        <mxCell id="C-vyLk0tnHw3VtMMgP7b-26" value="user_id int NOT NULL " style="shape=partialRectangle;overflow=hidden;connectable=0;fillColor=none;top=0;left=0;bottom=0;right=0;align=left;spacingLeft=6;fontStyle=5;" parent="C-vyLk0tnHw3VtMMgP7b-24" vertex="1">
          <mxGeometry x="30" width="370" height="30" as="geometry">
            <mxRectangle width="370" height="30" as="alternateBounds" />
          </mxGeometry>
        </mxCell>
        <mxCell id="C-vyLk0tnHw3VtMMgP7b-27" value="" style="shape=partialRectangle;collapsible=0;dropTarget=0;pointerEvents=0;fillColor=none;points=[[0,0.5],[1,0.5]];portConstraint=eastwest;top=0;left=0;right=0;bottom=0;" parent="C-vyLk0tnHw3VtMMgP7b-23" vertex="1">
          <mxGeometry y="50" width="400" height="30" as="geometry" />
        </mxCell>
        <mxCell id="C-vyLk0tnHw3VtMMgP7b-28" value="" style="shape=partialRectangle;overflow=hidden;connectable=0;fillColor=none;top=0;left=0;bottom=0;right=0;" parent="C-vyLk0tnHw3VtMMgP7b-27" vertex="1">
          <mxGeometry width="30" height="30" as="geometry">
            <mxRectangle width="30" height="30" as="alternateBounds" />
          </mxGeometry>
        </mxCell>
        <mxCell id="C-vyLk0tnHw3VtMMgP7b-29" value="user_name varchar(50) NOT NUL UNIQUE " style="shape=partialRectangle;overflow=hidden;connectable=0;fillColor=none;top=0;left=0;bottom=0;right=0;align=left;spacingLeft=6;" parent="C-vyLk0tnHw3VtMMgP7b-27" vertex="1">
          <mxGeometry x="30" width="370" height="30" as="geometry">
            <mxRectangle width="370" height="30" as="alternateBounds" />
          </mxGeometry>
        </mxCell>
        <mxCell id="6ZVJv1t7tKq6ZZ9v9irW-8" value="" style="shape=partialRectangle;collapsible=0;dropTarget=0;pointerEvents=0;fillColor=none;points=[[0,0.5],[1,0.5]];portConstraint=eastwest;top=0;left=0;right=0;bottom=0;" parent="C-vyLk0tnHw3VtMMgP7b-23" vertex="1">
          <mxGeometry y="80" width="400" height="20" as="geometry" />
        </mxCell>
        <mxCell id="6ZVJv1t7tKq6ZZ9v9irW-9" value="" style="shape=partialRectangle;overflow=hidden;connectable=0;fillColor=none;top=0;left=0;bottom=0;right=0;" parent="6ZVJv1t7tKq6ZZ9v9irW-8" vertex="1">
          <mxGeometry width="30" height="20" as="geometry">
            <mxRectangle width="30" height="20" as="alternateBounds" />
          </mxGeometry>
        </mxCell>
        <mxCell id="6ZVJv1t7tKq6ZZ9v9irW-10" value="password_hash varchar(50) NOT NUL" style="shape=partialRectangle;overflow=hidden;connectable=0;fillColor=none;top=0;left=0;bottom=0;right=0;align=left;spacingLeft=6;" parent="6ZVJv1t7tKq6ZZ9v9irW-8" vertex="1">
          <mxGeometry x="30" width="370" height="20" as="geometry">
            <mxRectangle width="370" height="20" as="alternateBounds" />
          </mxGeometry>
        </mxCell>
        <mxCell id="6ZVJv1t7tKq6ZZ9v9irW-11" value="" style="shape=partialRectangle;collapsible=0;dropTarget=0;pointerEvents=0;fillColor=none;points=[[0,0.5],[1,0.5]];portConstraint=eastwest;top=0;left=0;right=0;bottom=0;" parent="C-vyLk0tnHw3VtMMgP7b-23" vertex="1">
          <mxGeometry y="100" width="400" height="30" as="geometry" />
        </mxCell>
        <mxCell id="6ZVJv1t7tKq6ZZ9v9irW-12" value="" style="shape=partialRectangle;overflow=hidden;connectable=0;fillColor=none;top=0;left=0;bottom=0;right=0;" parent="6ZVJv1t7tKq6ZZ9v9irW-11" vertex="1">
          <mxGeometry width="30" height="30" as="geometry">
            <mxRectangle width="30" height="30" as="alternateBounds" />
          </mxGeometry>
        </mxCell>
        <mxCell id="6ZVJv1t7tKq6ZZ9v9irW-13" value="birth_date Date " style="shape=partialRectangle;overflow=hidden;connectable=0;fillColor=none;top=0;left=0;bottom=0;right=0;align=left;spacingLeft=6;" parent="6ZVJv1t7tKq6ZZ9v9irW-11" vertex="1">
          <mxGeometry x="30" width="370" height="30" as="geometry">
            <mxRectangle width="370" height="30" as="alternateBounds" />
          </mxGeometry>
        </mxCell>
        <mxCell id="6ZVJv1t7tKq6ZZ9v9irW-14" value="" style="shape=partialRectangle;collapsible=0;dropTarget=0;pointerEvents=0;fillColor=none;points=[[0,0.5],[1,0.5]];portConstraint=eastwest;top=0;left=0;right=0;bottom=0;" parent="C-vyLk0tnHw3VtMMgP7b-23" vertex="1">
          <mxGeometry y="130" width="400" height="30" as="geometry" />
        </mxCell>
        <mxCell id="6ZVJv1t7tKq6ZZ9v9irW-15" value="" style="shape=partialRectangle;overflow=hidden;connectable=0;fillColor=none;top=0;left=0;bottom=0;right=0;" parent="6ZVJv1t7tKq6ZZ9v9irW-14" vertex="1">
          <mxGeometry width="30" height="30" as="geometry">
            <mxRectangle width="30" height="30" as="alternateBounds" />
          </mxGeometry>
        </mxCell>
        <mxCell id="6ZVJv1t7tKq6ZZ9v9irW-16" value="email varchar(100) NOT NUL UNIQUE" style="shape=partialRectangle;overflow=hidden;connectable=0;fillColor=none;top=0;left=0;bottom=0;right=0;align=left;spacingLeft=6;" parent="6ZVJv1t7tKq6ZZ9v9irW-14" vertex="1">
          <mxGeometry x="30" width="370" height="30" as="geometry">
            <mxRectangle width="370" height="30" as="alternateBounds" />
          </mxGeometry>
        </mxCell>
        <mxCell id="6ZVJv1t7tKq6ZZ9v9irW-17" value="" style="shape=partialRectangle;collapsible=0;dropTarget=0;pointerEvents=0;fillColor=none;points=[[0,0.5],[1,0.5]];portConstraint=eastwest;top=0;left=0;right=0;bottom=0;" parent="C-vyLk0tnHw3VtMMgP7b-23" vertex="1">
          <mxGeometry y="160" width="400" height="30" as="geometry" />
        </mxCell>
        <mxCell id="6ZVJv1t7tKq6ZZ9v9irW-18" value="" style="shape=partialRectangle;overflow=hidden;connectable=0;fillColor=none;top=0;left=0;bottom=0;right=0;" parent="6ZVJv1t7tKq6ZZ9v9irW-17" vertex="1">
          <mxGeometry width="30" height="30" as="geometry">
            <mxRectangle width="30" height="30" as="alternateBounds" />
          </mxGeometry>
        </mxCell>
        <mxCell id="6ZVJv1t7tKq6ZZ9v9irW-19" value="location varchar(300) " style="shape=partialRectangle;overflow=hidden;connectable=0;fillColor=none;top=0;left=0;bottom=0;right=0;align=left;spacingLeft=6;" parent="6ZVJv1t7tKq6ZZ9v9irW-17" vertex="1">
          <mxGeometry x="30" width="370" height="30" as="geometry">
            <mxRectangle width="370" height="30" as="alternateBounds" />
          </mxGeometry>
        </mxCell>
        <mxCell id="6ZVJv1t7tKq6ZZ9v9irW-20" value="" style="shape=partialRectangle;collapsible=0;dropTarget=0;pointerEvents=0;fillColor=none;points=[[0,0.5],[1,0.5]];portConstraint=eastwest;top=0;left=0;right=0;bottom=0;" parent="C-vyLk0tnHw3VtMMgP7b-23" vertex="1">
          <mxGeometry y="190" width="400" height="30" as="geometry" />
        </mxCell>
        <mxCell id="6ZVJv1t7tKq6ZZ9v9irW-21" value="" style="shape=partialRectangle;overflow=hidden;connectable=0;fillColor=none;top=0;left=0;bottom=0;right=0;" parent="6ZVJv1t7tKq6ZZ9v9irW-20" vertex="1">
          <mxGeometry width="30" height="30" as="geometry">
            <mxRectangle width="30" height="30" as="alternateBounds" />
          </mxGeometry>
        </mxCell>
        <mxCell id="6ZVJv1t7tKq6ZZ9v9irW-22" value="subscription_type  ENUM(&#39;Free&#39;, &#39;Premium&#39;) DEFAULT &#39;Free&#39;" style="shape=partialRectangle;overflow=hidden;connectable=0;fillColor=none;top=0;left=0;bottom=0;right=0;align=left;spacingLeft=6;" parent="6ZVJv1t7tKq6ZZ9v9irW-20" vertex="1">
          <mxGeometry x="30" width="370" height="30" as="geometry">
            <mxRectangle width="370" height="30" as="alternateBounds" />
          </mxGeometry>
        </mxCell>
        <mxCell id="6ZVJv1t7tKq6ZZ9v9irW-23" value="" style="shape=partialRectangle;collapsible=0;dropTarget=0;pointerEvents=0;fillColor=none;points=[[0,0.5],[1,0.5]];portConstraint=eastwest;top=0;left=0;right=0;bottom=0;" parent="C-vyLk0tnHw3VtMMgP7b-23" vertex="1">
          <mxGeometry y="220" width="400" height="30" as="geometry" />
        </mxCell>
        <mxCell id="6ZVJv1t7tKq6ZZ9v9irW-24" value="" style="shape=partialRectangle;overflow=hidden;connectable=0;fillColor=none;top=0;left=0;bottom=0;right=0;" parent="6ZVJv1t7tKq6ZZ9v9irW-23" vertex="1">
          <mxGeometry width="30" height="30" as="geometry">
            <mxRectangle width="30" height="30" as="alternateBounds" />
          </mxGeometry>
        </mxCell>
        <mxCell id="6ZVJv1t7tKq6ZZ9v9irW-25" value="registration_date TIMESTAMP DEFAULT CURRENT_TIMESTAMP " style="shape=partialRectangle;overflow=hidden;connectable=0;fillColor=none;top=0;left=0;bottom=0;right=0;align=left;spacingLeft=6;" parent="6ZVJv1t7tKq6ZZ9v9irW-23" vertex="1">
          <mxGeometry x="30" width="370" height="30" as="geometry">
            <mxRectangle width="370" height="30" as="alternateBounds" />
          </mxGeometry>
        </mxCell>
        <mxCell id="6ZVJv1t7tKq6ZZ9v9irW-29" value="Songs" style="shape=table;startSize=20;container=1;collapsible=1;childLayout=tableLayout;fixedRows=1;rowLines=0;fontStyle=1;align=center;resizeLast=1;" parent="1" vertex="1">
          <mxGeometry x="110" y="690" width="400" height="300" as="geometry" />
        </mxCell>
        <mxCell id="6ZVJv1t7tKq6ZZ9v9irW-30" value="" style="shape=partialRectangle;collapsible=0;dropTarget=0;pointerEvents=0;fillColor=none;points=[[0,0.5],[1,0.5]];portConstraint=eastwest;top=0;left=0;right=0;bottom=1;" parent="6ZVJv1t7tKq6ZZ9v9irW-29" vertex="1">
          <mxGeometry y="20" width="400" height="30" as="geometry" />
        </mxCell>
        <mxCell id="6ZVJv1t7tKq6ZZ9v9irW-31" value="PK" style="shape=partialRectangle;overflow=hidden;connectable=0;fillColor=none;top=0;left=0;bottom=0;right=0;fontStyle=1;" parent="6ZVJv1t7tKq6ZZ9v9irW-30" vertex="1">
          <mxGeometry width="30" height="30" as="geometry">
            <mxRectangle width="30" height="30" as="alternateBounds" />
          </mxGeometry>
        </mxCell>
        <mxCell id="6ZVJv1t7tKq6ZZ9v9irW-32" value="song_id int NOT NULL " style="shape=partialRectangle;overflow=hidden;connectable=0;fillColor=none;top=0;left=0;bottom=0;right=0;align=left;spacingLeft=6;fontStyle=5;" parent="6ZVJv1t7tKq6ZZ9v9irW-30" vertex="1">
          <mxGeometry x="30" width="370" height="30" as="geometry">
            <mxRectangle width="370" height="30" as="alternateBounds" />
          </mxGeometry>
        </mxCell>
        <mxCell id="6ZVJv1t7tKq6ZZ9v9irW-33" value="" style="shape=partialRectangle;collapsible=0;dropTarget=0;pointerEvents=0;fillColor=none;points=[[0,0.5],[1,0.5]];portConstraint=eastwest;top=0;left=0;right=0;bottom=0;" parent="6ZVJv1t7tKq6ZZ9v9irW-29" vertex="1">
          <mxGeometry y="50" width="400" height="30" as="geometry" />
        </mxCell>
        <mxCell id="6ZVJv1t7tKq6ZZ9v9irW-34" value="" style="shape=partialRectangle;overflow=hidden;connectable=0;fillColor=none;top=0;left=0;bottom=0;right=0;" parent="6ZVJv1t7tKq6ZZ9v9irW-33" vertex="1">
          <mxGeometry width="30" height="30" as="geometry">
            <mxRectangle width="30" height="30" as="alternateBounds" />
          </mxGeometry>
        </mxCell>
        <mxCell id="6ZVJv1t7tKq6ZZ9v9irW-35" value="song_name varchar(100) NOT NUL UNIQUE " style="shape=partialRectangle;overflow=hidden;connectable=0;fillColor=none;top=0;left=0;bottom=0;right=0;align=left;spacingLeft=6;" parent="6ZVJv1t7tKq6ZZ9v9irW-33" vertex="1">
          <mxGeometry x="30" width="370" height="30" as="geometry">
            <mxRectangle width="370" height="30" as="alternateBounds" />
          </mxGeometry>
        </mxCell>
        <mxCell id="6ZVJv1t7tKq6ZZ9v9irW-36" value="" style="shape=partialRectangle;collapsible=0;dropTarget=0;pointerEvents=0;fillColor=none;points=[[0,0.5],[1,0.5]];portConstraint=eastwest;top=0;left=0;right=0;bottom=0;" parent="6ZVJv1t7tKq6ZZ9v9irW-29" vertex="1">
          <mxGeometry y="80" width="400" height="30" as="geometry" />
        </mxCell>
        <mxCell id="6ZVJv1t7tKq6ZZ9v9irW-37" value="FK1" style="shape=partialRectangle;overflow=hidden;connectable=0;fillColor=none;top=0;left=0;bottom=0;right=0;" parent="6ZVJv1t7tKq6ZZ9v9irW-36" vertex="1">
          <mxGeometry width="30" height="30" as="geometry">
            <mxRectangle width="30" height="30" as="alternateBounds" />
          </mxGeometry>
        </mxCell>
        <mxCell id="6ZVJv1t7tKq6ZZ9v9irW-38" value="artist_id int NOT NULL" style="shape=partialRectangle;overflow=hidden;connectable=0;fillColor=none;top=0;left=0;bottom=0;right=0;align=left;spacingLeft=6;" parent="6ZVJv1t7tKq6ZZ9v9irW-36" vertex="1">
          <mxGeometry x="30" width="370" height="30" as="geometry">
            <mxRectangle width="370" height="30" as="alternateBounds" />
          </mxGeometry>
        </mxCell>
        <mxCell id="6ZVJv1t7tKq6ZZ9v9irW-39" value="" style="shape=partialRectangle;collapsible=0;dropTarget=0;pointerEvents=0;fillColor=none;points=[[0,0.5],[1,0.5]];portConstraint=eastwest;top=0;left=0;right=0;bottom=0;" parent="6ZVJv1t7tKq6ZZ9v9irW-29" vertex="1">
          <mxGeometry y="110" width="400" height="30" as="geometry" />
        </mxCell>
        <mxCell id="6ZVJv1t7tKq6ZZ9v9irW-40" value="FK2" style="shape=partialRectangle;overflow=hidden;connectable=0;fillColor=none;top=0;left=0;bottom=0;right=0;" parent="6ZVJv1t7tKq6ZZ9v9irW-39" vertex="1">
          <mxGeometry width="30" height="30" as="geometry">
            <mxRectangle width="30" height="30" as="alternateBounds" />
          </mxGeometry>
        </mxCell>
        <mxCell id="6ZVJv1t7tKq6ZZ9v9irW-41" value="album_id int " style="shape=partialRectangle;overflow=hidden;connectable=0;fillColor=none;top=0;left=0;bottom=0;right=0;align=left;spacingLeft=6;" parent="6ZVJv1t7tKq6ZZ9v9irW-39" vertex="1">
          <mxGeometry x="30" width="370" height="30" as="geometry">
            <mxRectangle width="370" height="30" as="alternateBounds" />
          </mxGeometry>
        </mxCell>
        <mxCell id="6ZVJv1t7tKq6ZZ9v9irW-42" value="" style="shape=partialRectangle;collapsible=0;dropTarget=0;pointerEvents=0;fillColor=none;points=[[0,0.5],[1,0.5]];portConstraint=eastwest;top=0;left=0;right=0;bottom=0;" parent="6ZVJv1t7tKq6ZZ9v9irW-29" vertex="1">
          <mxGeometry y="140" width="400" height="30" as="geometry" />
        </mxCell>
        <mxCell id="6ZVJv1t7tKq6ZZ9v9irW-43" value="" style="shape=partialRectangle;overflow=hidden;connectable=0;fillColor=none;top=0;left=0;bottom=0;right=0;" parent="6ZVJv1t7tKq6ZZ9v9irW-42" vertex="1">
          <mxGeometry width="30" height="30" as="geometry">
            <mxRectangle width="30" height="30" as="alternateBounds" />
          </mxGeometry>
        </mxCell>
        <mxCell id="6ZVJv1t7tKq6ZZ9v9irW-44" value="genre varchar(50)" style="shape=partialRectangle;overflow=hidden;connectable=0;fillColor=none;top=0;left=0;bottom=0;right=0;align=left;spacingLeft=6;" parent="6ZVJv1t7tKq6ZZ9v9irW-42" vertex="1">
          <mxGeometry x="30" width="370" height="30" as="geometry">
            <mxRectangle width="370" height="30" as="alternateBounds" />
          </mxGeometry>
        </mxCell>
        <mxCell id="6ZVJv1t7tKq6ZZ9v9irW-45" value="" style="shape=partialRectangle;collapsible=0;dropTarget=0;pointerEvents=0;fillColor=none;points=[[0,0.5],[1,0.5]];portConstraint=eastwest;top=0;left=0;right=0;bottom=0;" parent="6ZVJv1t7tKq6ZZ9v9irW-29" vertex="1">
          <mxGeometry y="170" width="400" height="30" as="geometry" />
        </mxCell>
        <mxCell id="6ZVJv1t7tKq6ZZ9v9irW-46" value="" style="shape=partialRectangle;overflow=hidden;connectable=0;fillColor=none;top=0;left=0;bottom=0;right=0;" parent="6ZVJv1t7tKq6ZZ9v9irW-45" vertex="1">
          <mxGeometry width="30" height="30" as="geometry">
            <mxRectangle width="30" height="30" as="alternateBounds" />
          </mxGeometry>
        </mxCell>
        <mxCell id="6ZVJv1t7tKq6ZZ9v9irW-47" value="release_date Date" style="shape=partialRectangle;overflow=hidden;connectable=0;fillColor=none;top=0;left=0;bottom=0;right=0;align=left;spacingLeft=6;" parent="6ZVJv1t7tKq6ZZ9v9irW-45" vertex="1">
          <mxGeometry x="30" width="370" height="30" as="geometry">
            <mxRectangle width="370" height="30" as="alternateBounds" />
          </mxGeometry>
        </mxCell>
        <mxCell id="6ZVJv1t7tKq6ZZ9v9irW-48" value="" style="shape=partialRectangle;collapsible=0;dropTarget=0;pointerEvents=0;fillColor=none;points=[[0,0.5],[1,0.5]];portConstraint=eastwest;top=0;left=0;right=0;bottom=0;" parent="6ZVJv1t7tKq6ZZ9v9irW-29" vertex="1">
          <mxGeometry y="200" width="400" height="30" as="geometry" />
        </mxCell>
        <mxCell id="6ZVJv1t7tKq6ZZ9v9irW-49" value="" style="shape=partialRectangle;overflow=hidden;connectable=0;fillColor=none;top=0;left=0;bottom=0;right=0;" parent="6ZVJv1t7tKq6ZZ9v9irW-48" vertex="1">
          <mxGeometry width="30" height="30" as="geometry">
            <mxRectangle width="30" height="30" as="alternateBounds" />
          </mxGeometry>
        </mxCell>
        <mxCell id="6ZVJv1t7tKq6ZZ9v9irW-50" value="lyrics TEXT" style="shape=partialRectangle;overflow=hidden;connectable=0;fillColor=none;top=0;left=0;bottom=0;right=0;align=left;spacingLeft=6;" parent="6ZVJv1t7tKq6ZZ9v9irW-48" vertex="1">
          <mxGeometry x="30" width="370" height="30" as="geometry">
            <mxRectangle width="370" height="30" as="alternateBounds" />
          </mxGeometry>
        </mxCell>
        <mxCell id="6ZVJv1t7tKq6ZZ9v9irW-51" value="" style="shape=partialRectangle;collapsible=0;dropTarget=0;pointerEvents=0;fillColor=none;points=[[0,0.5],[1,0.5]];portConstraint=eastwest;top=0;left=0;right=0;bottom=0;" parent="6ZVJv1t7tKq6ZZ9v9irW-29" vertex="1">
          <mxGeometry y="230" width="400" height="30" as="geometry" />
        </mxCell>
        <mxCell id="6ZVJv1t7tKq6ZZ9v9irW-52" value="" style="shape=partialRectangle;overflow=hidden;connectable=0;fillColor=none;top=0;left=0;bottom=0;right=0;" parent="6ZVJv1t7tKq6ZZ9v9irW-51" vertex="1">
          <mxGeometry width="30" height="30" as="geometry">
            <mxRectangle width="30" height="30" as="alternateBounds" />
          </mxGeometry>
        </mxCell>
        <mxCell id="6ZVJv1t7tKq6ZZ9v9irW-53" value="is_addable_to_playlist BOOLEAN DEFAULT TRUE" style="shape=partialRectangle;overflow=hidden;connectable=0;fillColor=none;top=0;left=0;bottom=0;right=0;align=left;spacingLeft=6;" parent="6ZVJv1t7tKq6ZZ9v9irW-51" vertex="1">
          <mxGeometry x="30" width="370" height="30" as="geometry">
            <mxRectangle width="370" height="30" as="alternateBounds" />
          </mxGeometry>
        </mxCell>
        <mxCell id="6ZVJv1t7tKq6ZZ9v9irW-54" value="" style="shape=partialRectangle;collapsible=0;dropTarget=0;pointerEvents=0;fillColor=none;points=[[0,0.5],[1,0.5]];portConstraint=eastwest;top=0;left=0;right=0;bottom=0;" parent="6ZVJv1t7tKq6ZZ9v9irW-29" vertex="1">
          <mxGeometry y="260" width="400" height="30" as="geometry" />
        </mxCell>
        <mxCell id="6ZVJv1t7tKq6ZZ9v9irW-55" value="" style="shape=partialRectangle;overflow=hidden;connectable=0;fillColor=none;top=0;left=0;bottom=0;right=0;" parent="6ZVJv1t7tKq6ZZ9v9irW-54" vertex="1">
          <mxGeometry width="30" height="30" as="geometry">
            <mxRectangle width="30" height="30" as="alternateBounds" />
          </mxGeometry>
        </mxCell>
        <mxCell id="6ZVJv1t7tKq6ZZ9v9irW-56" value="is_available BOOLEAN DEFAULT TRUE" style="shape=partialRectangle;overflow=hidden;connectable=0;fillColor=none;top=0;left=0;bottom=0;right=0;align=left;spacingLeft=6;" parent="6ZVJv1t7tKq6ZZ9v9irW-54" vertex="1">
          <mxGeometry x="30" width="370" height="30" as="geometry">
            <mxRectangle width="370" height="30" as="alternateBounds" />
          </mxGeometry>
        </mxCell>
        <mxCell id="6ZVJv1t7tKq6ZZ9v9irW-57" value="Playlists" style="shape=table;startSize=30;container=1;collapsible=1;childLayout=tableLayout;fixedRows=1;rowLines=0;fontStyle=1;align=center;resizeLast=1;" parent="1" vertex="1">
          <mxGeometry x="800" y="465" width="400" height="180" as="geometry" />
        </mxCell>
        <mxCell id="6ZVJv1t7tKq6ZZ9v9irW-58" value="" style="shape=partialRectangle;collapsible=0;dropTarget=0;pointerEvents=0;fillColor=none;points=[[0,0.5],[1,0.5]];portConstraint=eastwest;top=0;left=0;right=0;bottom=1;" parent="6ZVJv1t7tKq6ZZ9v9irW-57" vertex="1">
          <mxGeometry y="30" width="400" height="40" as="geometry" />
        </mxCell>
        <mxCell id="6ZVJv1t7tKq6ZZ9v9irW-59" value="PK" style="shape=partialRectangle;overflow=hidden;connectable=0;fillColor=none;top=0;left=0;bottom=0;right=0;fontStyle=1;" parent="6ZVJv1t7tKq6ZZ9v9irW-58" vertex="1">
          <mxGeometry width="30" height="40" as="geometry">
            <mxRectangle width="30" height="40" as="alternateBounds" />
          </mxGeometry>
        </mxCell>
        <mxCell id="6ZVJv1t7tKq6ZZ9v9irW-60" value="playlist_id int NOT NULL " style="shape=partialRectangle;overflow=hidden;connectable=0;fillColor=none;top=0;left=0;bottom=0;right=0;align=left;spacingLeft=6;fontStyle=5;" parent="6ZVJv1t7tKq6ZZ9v9irW-58" vertex="1">
          <mxGeometry x="30" width="370" height="40" as="geometry">
            <mxRectangle width="370" height="40" as="alternateBounds" />
          </mxGeometry>
        </mxCell>
        <mxCell id="6ZVJv1t7tKq6ZZ9v9irW-64" value="" style="shape=partialRectangle;collapsible=0;dropTarget=0;pointerEvents=0;fillColor=none;points=[[0,0.5],[1,0.5]];portConstraint=eastwest;top=0;left=0;right=0;bottom=0;" parent="6ZVJv1t7tKq6ZZ9v9irW-57" vertex="1">
          <mxGeometry y="70" width="400" height="20" as="geometry" />
        </mxCell>
        <mxCell id="6ZVJv1t7tKq6ZZ9v9irW-65" value="FK1" style="shape=partialRectangle;overflow=hidden;connectable=0;fillColor=none;top=0;left=0;bottom=0;right=0;" parent="6ZVJv1t7tKq6ZZ9v9irW-64" vertex="1">
          <mxGeometry width="30" height="20" as="geometry">
            <mxRectangle width="30" height="20" as="alternateBounds" />
          </mxGeometry>
        </mxCell>
        <mxCell id="6ZVJv1t7tKq6ZZ9v9irW-66" value="user_id int NOT NULL" style="shape=partialRectangle;overflow=hidden;connectable=0;fillColor=none;top=0;left=0;bottom=0;right=0;align=left;spacingLeft=6;" parent="6ZVJv1t7tKq6ZZ9v9irW-64" vertex="1">
          <mxGeometry x="30" width="370" height="20" as="geometry">
            <mxRectangle width="370" height="20" as="alternateBounds" />
          </mxGeometry>
        </mxCell>
        <mxCell id="6ZVJv1t7tKq6ZZ9v9irW-67" value="" style="shape=partialRectangle;collapsible=0;dropTarget=0;pointerEvents=0;fillColor=none;points=[[0,0.5],[1,0.5]];portConstraint=eastwest;top=0;left=0;right=0;bottom=0;" parent="6ZVJv1t7tKq6ZZ9v9irW-57" vertex="1">
          <mxGeometry y="90" width="400" height="30" as="geometry" />
        </mxCell>
        <mxCell id="6ZVJv1t7tKq6ZZ9v9irW-68" value="" style="shape=partialRectangle;overflow=hidden;connectable=0;fillColor=none;top=0;left=0;bottom=0;right=0;" parent="6ZVJv1t7tKq6ZZ9v9irW-67" vertex="1">
          <mxGeometry width="30" height="30" as="geometry">
            <mxRectangle width="30" height="30" as="alternateBounds" />
          </mxGeometry>
        </mxCell>
        <mxCell id="6ZVJv1t7tKq6ZZ9v9irW-69" value="playlist_name varchar(100) " style="shape=partialRectangle;overflow=hidden;connectable=0;fillColor=none;top=0;left=0;bottom=0;right=0;align=left;spacingLeft=6;" parent="6ZVJv1t7tKq6ZZ9v9irW-67" vertex="1">
          <mxGeometry x="30" width="370" height="30" as="geometry">
            <mxRectangle width="370" height="30" as="alternateBounds" />
          </mxGeometry>
        </mxCell>
        <mxCell id="6ZVJv1t7tKq6ZZ9v9irW-70" value="" style="shape=partialRectangle;collapsible=0;dropTarget=0;pointerEvents=0;fillColor=none;points=[[0,0.5],[1,0.5]];portConstraint=eastwest;top=0;left=0;right=0;bottom=0;" parent="6ZVJv1t7tKq6ZZ9v9irW-57" vertex="1">
          <mxGeometry y="120" width="400" height="30" as="geometry" />
        </mxCell>
        <mxCell id="6ZVJv1t7tKq6ZZ9v9irW-71" value="" style="shape=partialRectangle;overflow=hidden;connectable=0;fillColor=none;top=0;left=0;bottom=0;right=0;" parent="6ZVJv1t7tKq6ZZ9v9irW-70" vertex="1">
          <mxGeometry width="30" height="30" as="geometry">
            <mxRectangle width="30" height="30" as="alternateBounds" />
          </mxGeometry>
        </mxCell>
        <mxCell id="6ZVJv1t7tKq6ZZ9v9irW-72" value="is_public BOOLEAN DEFAULT FALSE" style="shape=partialRectangle;overflow=hidden;connectable=0;fillColor=none;top=0;left=0;bottom=0;right=0;align=left;spacingLeft=6;" parent="6ZVJv1t7tKq6ZZ9v9irW-70" vertex="1">
          <mxGeometry x="30" width="370" height="30" as="geometry">
            <mxRectangle width="370" height="30" as="alternateBounds" />
          </mxGeometry>
        </mxCell>
        <mxCell id="6ZVJv1t7tKq6ZZ9v9irW-73" value="" style="shape=partialRectangle;collapsible=0;dropTarget=0;pointerEvents=0;fillColor=none;points=[[0,0.5],[1,0.5]];portConstraint=eastwest;top=0;left=0;right=0;bottom=0;" parent="6ZVJv1t7tKq6ZZ9v9irW-57" vertex="1">
          <mxGeometry y="150" width="400" height="30" as="geometry" />
        </mxCell>
        <mxCell id="6ZVJv1t7tKq6ZZ9v9irW-74" value="" style="shape=partialRectangle;overflow=hidden;connectable=0;fillColor=none;top=0;left=0;bottom=0;right=0;" parent="6ZVJv1t7tKq6ZZ9v9irW-73" vertex="1">
          <mxGeometry width="30" height="30" as="geometry">
            <mxRectangle width="30" height="30" as="alternateBounds" />
          </mxGeometry>
        </mxCell>
        <mxCell id="6ZVJv1t7tKq6ZZ9v9irW-75" value="creation_date TIMESTAMP DEFAULT CURRENT_TIMESTAMP " style="shape=partialRectangle;overflow=hidden;connectable=0;fillColor=none;top=0;left=0;bottom=0;right=0;align=left;spacingLeft=6;" parent="6ZVJv1t7tKq6ZZ9v9irW-73" vertex="1">
          <mxGeometry x="30" width="370" height="30" as="geometry">
            <mxRectangle width="370" height="30" as="alternateBounds" />
          </mxGeometry>
        </mxCell>
        <mxCell id="6ZVJv1t7tKq6ZZ9v9irW-85" value="FollowList" style="shape=rhombus;perimeter=rhombusPerimeter;whiteSpace=wrap;html=1;align=center;" parent="1" vertex="1">
          <mxGeometry x="1220" y="150" width="120" height="60" as="geometry" />
        </mxCell>
        <mxCell id="6ZVJv1t7tKq6ZZ9v9irW-87" value="" style="edgeStyle=entityRelationEdgeStyle;fontSize=12;html=1;endArrow=ERmany;rounded=0;exitX=0.5;exitY=0;exitDx=0;exitDy=0;entryX=1.005;entryY=0.02;entryDx=0;entryDy=0;entryPerimeter=0;" parent="1" source="6ZVJv1t7tKq6ZZ9v9irW-85" target="C-vyLk0tnHw3VtMMgP7b-24" edge="1">
          <mxGeometry width="100" height="100" relative="1" as="geometry">
            <mxPoint x="600" y="150" as="sourcePoint" />
            <mxPoint x="630" y="110" as="targetPoint" />
            <Array as="points">
              <mxPoint x="670" y="130" />
              <mxPoint x="670" y="130" />
            </Array>
          </mxGeometry>
        </mxCell>
        <mxCell id="6ZVJv1t7tKq6ZZ9v9irW-89" value="follower_id" style="edgeLabel;html=1;align=center;verticalAlign=middle;resizable=0;points=[];" parent="6ZVJv1t7tKq6ZZ9v9irW-87" vertex="1" connectable="0">
          <mxGeometry x="-0.0718" y="-1" relative="1" as="geometry">
            <mxPoint as="offset" />
          </mxGeometry>
        </mxCell>
        <mxCell id="6ZVJv1t7tKq6ZZ9v9irW-88" value="" style="edgeStyle=entityRelationEdgeStyle;fontSize=12;html=1;endArrow=ERmany;rounded=0;entryX=1;entryY=0;entryDx=0;entryDy=0;exitX=0.5;exitY=1;exitDx=0;exitDy=0;entryPerimeter=0;" parent="1" source="6ZVJv1t7tKq6ZZ9v9irW-85" target="6ZVJv1t7tKq6ZZ9v9irW-8" edge="1">
          <mxGeometry width="100" height="100" relative="1" as="geometry">
            <mxPoint x="470" y="310" as="sourcePoint" />
            <mxPoint x="570" y="210" as="targetPoint" />
          </mxGeometry>
        </mxCell>
        <mxCell id="6ZVJv1t7tKq6ZZ9v9irW-90" value="followed_id" style="edgeLabel;html=1;align=center;verticalAlign=middle;resizable=0;points=[];" parent="6ZVJv1t7tKq6ZZ9v9irW-88" vertex="1" connectable="0">
          <mxGeometry x="-0.1056" y="-2" relative="1" as="geometry">
            <mxPoint as="offset" />
          </mxGeometry>
        </mxCell>
        <mxCell id="6ZVJv1t7tKq6ZZ9v9irW-144" style="edgeStyle=orthogonalEdgeStyle;rounded=0;orthogonalLoop=1;jettySize=auto;html=1;exitX=0.5;exitY=0;exitDx=0;exitDy=0;entryX=0;entryY=1;entryDx=0;entryDy=0;" parent="1" source="6ZVJv1t7tKq6ZZ9v9irW-91" target="C-vyLk0tnHw3VtMMgP7b-23" edge="1">
          <mxGeometry relative="1" as="geometry" />
        </mxCell>
        <mxCell id="6ZVJv1t7tKq6ZZ9v9irW-145" value="ارث بری" style="edgeLabel;html=1;align=center;verticalAlign=middle;resizable=0;points=[];" parent="6ZVJv1t7tKq6ZZ9v9irW-144" vertex="1" connectable="0">
          <mxGeometry x="0.0333" y="4" relative="1" as="geometry">
            <mxPoint as="offset" />
          </mxGeometry>
        </mxCell>
        <mxCell id="6ZVJv1t7tKq6ZZ9v9irW-91" value="Artists" style="shape=table;startSize=30;container=1;collapsible=1;childLayout=tableLayout;fixedRows=1;rowLines=0;fontStyle=1;align=center;resizeLast=1;" parent="1" vertex="1">
          <mxGeometry x="-390" y="465" width="180" height="70" as="geometry" />
        </mxCell>
        <mxCell id="6ZVJv1t7tKq6ZZ9v9irW-92" value="" style="shape=partialRectangle;collapsible=0;dropTarget=0;pointerEvents=0;fillColor=none;points=[[0,0.5],[1,0.5]];portConstraint=eastwest;top=0;left=0;right=0;bottom=1;" parent="6ZVJv1t7tKq6ZZ9v9irW-91" vertex="1">
          <mxGeometry y="30" width="180" height="40" as="geometry" />
        </mxCell>
        <mxCell id="6ZVJv1t7tKq6ZZ9v9irW-93" value="PK" style="shape=partialRectangle;overflow=hidden;connectable=0;fillColor=none;top=0;left=0;bottom=0;right=0;fontStyle=1;" parent="6ZVJv1t7tKq6ZZ9v9irW-92" vertex="1">
          <mxGeometry width="30" height="40" as="geometry">
            <mxRectangle width="30" height="40" as="alternateBounds" />
          </mxGeometry>
        </mxCell>
        <mxCell id="6ZVJv1t7tKq6ZZ9v9irW-94" value="artist_id int NOT NULL " style="shape=partialRectangle;overflow=hidden;connectable=0;fillColor=none;top=0;left=0;bottom=0;right=0;align=left;spacingLeft=6;fontStyle=5;" parent="6ZVJv1t7tKq6ZZ9v9irW-92" vertex="1">
          <mxGeometry x="30" width="150" height="40" as="geometry">
            <mxRectangle width="150" height="40" as="alternateBounds" />
          </mxGeometry>
        </mxCell>
        <mxCell id="6ZVJv1t7tKq6ZZ9v9irW-115" value="" style="edgeStyle=entityRelationEdgeStyle;fontSize=12;html=1;endArrow=ERzeroToMany;startArrow=ERmandOne;rounded=0;entryX=0;entryY=0.5;entryDx=0;entryDy=0;exitX=1;exitY=0.5;exitDx=0;exitDy=0;" parent="1" source="6ZVJv1t7tKq6ZZ9v9irW-92" target="6ZVJv1t7tKq6ZZ9v9irW-36" edge="1">
          <mxGeometry width="100" height="100" relative="1" as="geometry">
            <mxPoint x="-260" y="340" as="sourcePoint" />
            <mxPoint x="-70" y="480" as="targetPoint" />
            <Array as="points">
              <mxPoint x="-240" y="310" />
              <mxPoint x="-110" y="630" />
              <mxPoint x="-230" y="400" />
              <mxPoint x="-220" y="540" />
            </Array>
          </mxGeometry>
        </mxCell>
        <mxCell id="6ZVJv1t7tKq6ZZ9v9irW-117" value="Albums" style="shape=table;startSize=30;container=1;collapsible=1;childLayout=tableLayout;fixedRows=1;rowLines=0;fontStyle=1;align=center;resizeLast=1;" parent="1" vertex="1">
          <mxGeometry x="-450" y="765" width="400" height="150" as="geometry" />
        </mxCell>
        <mxCell id="6ZVJv1t7tKq6ZZ9v9irW-118" value="" style="shape=partialRectangle;collapsible=0;dropTarget=0;pointerEvents=0;fillColor=none;points=[[0,0.5],[1,0.5]];portConstraint=eastwest;top=0;left=0;right=0;bottom=1;" parent="6ZVJv1t7tKq6ZZ9v9irW-117" vertex="1">
          <mxGeometry y="30" width="400" height="40" as="geometry" />
        </mxCell>
        <mxCell id="6ZVJv1t7tKq6ZZ9v9irW-119" value="PK" style="shape=partialRectangle;overflow=hidden;connectable=0;fillColor=none;top=0;left=0;bottom=0;right=0;fontStyle=1;" parent="6ZVJv1t7tKq6ZZ9v9irW-118" vertex="1">
          <mxGeometry width="30" height="40" as="geometry">
            <mxRectangle width="30" height="40" as="alternateBounds" />
          </mxGeometry>
        </mxCell>
        <mxCell id="6ZVJv1t7tKq6ZZ9v9irW-120" value="album_id int NOT NULL " style="shape=partialRectangle;overflow=hidden;connectable=0;fillColor=none;top=0;left=0;bottom=0;right=0;align=left;spacingLeft=6;fontStyle=5;" parent="6ZVJv1t7tKq6ZZ9v9irW-118" vertex="1">
          <mxGeometry x="30" width="370" height="40" as="geometry">
            <mxRectangle width="370" height="40" as="alternateBounds" />
          </mxGeometry>
        </mxCell>
        <mxCell id="6ZVJv1t7tKq6ZZ9v9irW-121" value="" style="shape=partialRectangle;collapsible=0;dropTarget=0;pointerEvents=0;fillColor=none;points=[[0,0.5],[1,0.5]];portConstraint=eastwest;top=0;left=0;right=0;bottom=0;" parent="6ZVJv1t7tKq6ZZ9v9irW-117" vertex="1">
          <mxGeometry y="70" width="400" height="20" as="geometry" />
        </mxCell>
        <mxCell id="6ZVJv1t7tKq6ZZ9v9irW-122" value="FK1" style="shape=partialRectangle;overflow=hidden;connectable=0;fillColor=none;top=0;left=0;bottom=0;right=0;" parent="6ZVJv1t7tKq6ZZ9v9irW-121" vertex="1">
          <mxGeometry width="30" height="20" as="geometry">
            <mxRectangle width="30" height="20" as="alternateBounds" />
          </mxGeometry>
        </mxCell>
        <mxCell id="6ZVJv1t7tKq6ZZ9v9irW-123" value="artist_id int NOT NULL" style="shape=partialRectangle;overflow=hidden;connectable=0;fillColor=none;top=0;left=0;bottom=0;right=0;align=left;spacingLeft=6;" parent="6ZVJv1t7tKq6ZZ9v9irW-121" vertex="1">
          <mxGeometry x="30" width="370" height="20" as="geometry">
            <mxRectangle width="370" height="20" as="alternateBounds" />
          </mxGeometry>
        </mxCell>
        <mxCell id="6ZVJv1t7tKq6ZZ9v9irW-124" value="" style="shape=partialRectangle;collapsible=0;dropTarget=0;pointerEvents=0;fillColor=none;points=[[0,0.5],[1,0.5]];portConstraint=eastwest;top=0;left=0;right=0;bottom=0;" parent="6ZVJv1t7tKq6ZZ9v9irW-117" vertex="1">
          <mxGeometry y="90" width="400" height="30" as="geometry" />
        </mxCell>
        <mxCell id="6ZVJv1t7tKq6ZZ9v9irW-125" value="" style="shape=partialRectangle;overflow=hidden;connectable=0;fillColor=none;top=0;left=0;bottom=0;right=0;" parent="6ZVJv1t7tKq6ZZ9v9irW-124" vertex="1">
          <mxGeometry width="30" height="30" as="geometry">
            <mxRectangle width="30" height="30" as="alternateBounds" />
          </mxGeometry>
        </mxCell>
        <mxCell id="6ZVJv1t7tKq6ZZ9v9irW-126" value="album_name varchar(100) NOT NULL" style="shape=partialRectangle;overflow=hidden;connectable=0;fillColor=none;top=0;left=0;bottom=0;right=0;align=left;spacingLeft=6;" parent="6ZVJv1t7tKq6ZZ9v9irW-124" vertex="1">
          <mxGeometry x="30" width="370" height="30" as="geometry">
            <mxRectangle width="370" height="30" as="alternateBounds" />
          </mxGeometry>
        </mxCell>
        <mxCell id="6ZVJv1t7tKq6ZZ9v9irW-127" value="" style="shape=partialRectangle;collapsible=0;dropTarget=0;pointerEvents=0;fillColor=none;points=[[0,0.5],[1,0.5]];portConstraint=eastwest;top=0;left=0;right=0;bottom=0;" parent="6ZVJv1t7tKq6ZZ9v9irW-117" vertex="1">
          <mxGeometry y="120" width="400" height="30" as="geometry" />
        </mxCell>
        <mxCell id="6ZVJv1t7tKq6ZZ9v9irW-128" value="" style="shape=partialRectangle;overflow=hidden;connectable=0;fillColor=none;top=0;left=0;bottom=0;right=0;" parent="6ZVJv1t7tKq6ZZ9v9irW-127" vertex="1">
          <mxGeometry width="30" height="30" as="geometry">
            <mxRectangle width="30" height="30" as="alternateBounds" />
          </mxGeometry>
        </mxCell>
        <mxCell id="6ZVJv1t7tKq6ZZ9v9irW-129" value="release_date Date" style="shape=partialRectangle;overflow=hidden;connectable=0;fillColor=none;top=0;left=0;bottom=0;right=0;align=left;spacingLeft=6;" parent="6ZVJv1t7tKq6ZZ9v9irW-127" vertex="1">
          <mxGeometry x="30" width="370" height="30" as="geometry">
            <mxRectangle width="370" height="30" as="alternateBounds" />
          </mxGeometry>
        </mxCell>
        <mxCell id="6ZVJv1t7tKq6ZZ9v9irW-135" value="" style="edgeStyle=entityRelationEdgeStyle;fontSize=12;html=1;endArrow=ERoneToMany;rounded=0;exitX=1;exitY=0.5;exitDx=0;exitDy=0;entryX=0;entryY=0.5;entryDx=0;entryDy=0;" parent="1" source="6ZVJv1t7tKq6ZZ9v9irW-118" target="6ZVJv1t7tKq6ZZ9v9irW-39" edge="1">
          <mxGeometry width="100" height="100" relative="1" as="geometry">
            <mxPoint x="-90" y="810" as="sourcePoint" />
            <mxPoint x="10" y="710" as="targetPoint" />
            <Array as="points">
              <mxPoint x="210" y="930" />
              <mxPoint x="200" y="920" />
            </Array>
          </mxGeometry>
        </mxCell>
        <mxCell id="6ZVJv1t7tKq6ZZ9v9irW-136" value="" style="fontSize=12;html=1;endArrow=ERoneToMany;rounded=0;exitX=0;exitY=0.5;exitDx=0;exitDy=0;entryX=0;entryY=0.5;entryDx=0;entryDy=0;" parent="1" source="6ZVJv1t7tKq6ZZ9v9irW-92" target="6ZVJv1t7tKq6ZZ9v9irW-121" edge="1">
          <mxGeometry width="100" height="100" relative="1" as="geometry">
            <mxPoint x="-310" y="310" as="sourcePoint" />
            <mxPoint x="-440" y="430" as="targetPoint" />
            <Array as="points">
              <mxPoint x="-480" y="530" />
              <mxPoint x="-480" y="800" />
            </Array>
          </mxGeometry>
        </mxCell>
        <mxCell id="6ZVJv1t7tKq6ZZ9v9irW-138" value="PlaylistSongs" style="shape=rhombus;perimeter=rhombusPerimeter;whiteSpace=wrap;html=1;align=center;" parent="1" vertex="1">
          <mxGeometry x="620" y="695" width="120" height="60" as="geometry" />
        </mxCell>
        <mxCell id="6ZVJv1t7tKq6ZZ9v9irW-139" value="" style="edgeStyle=entityRelationEdgeStyle;fontSize=12;html=1;endArrow=ERmany;rounded=0;exitX=1;exitY=0.5;exitDx=0;exitDy=0;entryX=0;entryY=0.5;entryDx=0;entryDy=0;" parent="1" source="6ZVJv1t7tKq6ZZ9v9irW-138" target="6ZVJv1t7tKq6ZZ9v9irW-67" edge="1">
          <mxGeometry width="100" height="100" relative="1" as="geometry">
            <mxPoint x="470" y="539.38" as="sourcePoint" />
            <mxPoint x="620" y="539.4599999999999" as="targetPoint" />
          </mxGeometry>
        </mxCell>
        <mxCell id="6ZVJv1t7tKq6ZZ9v9irW-141" value="" style="edgeStyle=entityRelationEdgeStyle;fontSize=12;html=1;endArrow=ERmany;rounded=0;entryX=1;entryY=0.5;entryDx=0;entryDy=0;exitX=0;exitY=0.5;exitDx=0;exitDy=0;" parent="1" source="6ZVJv1t7tKq6ZZ9v9irW-138" target="6ZVJv1t7tKq6ZZ9v9irW-30" edge="1">
          <mxGeometry width="100" height="100" relative="1" as="geometry">
            <mxPoint x="265" y="520" as="sourcePoint" />
            <mxPoint x="110" y="550" as="targetPoint" />
          </mxGeometry>
        </mxCell>
        <mxCell id="6ZVJv1t7tKq6ZZ9v9irW-142" value="" style="edgeStyle=entityRelationEdgeStyle;fontSize=12;html=1;endArrow=ERmany;startArrow=ERmany;rounded=0;entryX=1;entryY=1;entryDx=0;entryDy=0;exitX=0;exitY=0.5;exitDx=0;exitDy=0;" parent="1" source="6ZVJv1t7tKq6ZZ9v9irW-64" target="C-vyLk0tnHw3VtMMgP7b-23" edge="1">
          <mxGeometry width="100" height="100" relative="1" as="geometry">
            <mxPoint x="650" y="420" as="sourcePoint" />
            <mxPoint x="750" y="320" as="targetPoint" />
          </mxGeometry>
        </mxCell>
        <mxCell id="6ZVJv1t7tKq6ZZ9v9irW-167" style="edgeStyle=orthogonalEdgeStyle;rounded=0;orthogonalLoop=1;jettySize=auto;html=1;exitX=0.5;exitY=1;exitDx=0;exitDy=0;entryX=0.5;entryY=0;entryDx=0;entryDy=0;" parent="1" source="6ZVJv1t7tKq6ZZ9v9irW-146" target="6ZVJv1t7tKq6ZZ9v9irW-166" edge="1">
          <mxGeometry relative="1" as="geometry" />
        </mxCell>
        <mxCell id="6ZVJv1t7tKq6ZZ9v9irW-146" value="Wallet" style="shape=ext;margin=3;double=1;whiteSpace=wrap;html=1;align=center;" parent="1" vertex="1">
          <mxGeometry x="20" y="-100" width="100" height="40" as="geometry" />
        </mxCell>
        <mxCell id="6ZVJv1t7tKq6ZZ9v9irW-166" value="&lt;span style=&quot;border-bottom: 1px dotted&quot;&gt;balance&lt;/span&gt;" style="ellipse;whiteSpace=wrap;html=1;align=center;" parent="1" vertex="1">
          <mxGeometry x="20" y="-40" width="100" height="40" as="geometry" />
        </mxCell>
        <mxCell id="6ZVJv1t7tKq6ZZ9v9irW-175" style="edgeStyle=orthogonalEdgeStyle;rounded=0;orthogonalLoop=1;jettySize=auto;html=1;exitX=0.5;exitY=1;exitDx=0;exitDy=0;entryX=0.25;entryY=0;entryDx=0;entryDy=0;" parent="1" source="6ZVJv1t7tKq6ZZ9v9irW-169" target="C-vyLk0tnHw3VtMMgP7b-23" edge="1">
          <mxGeometry relative="1" as="geometry" />
        </mxCell>
        <mxCell id="6ZVJv1t7tKq6ZZ9v9irW-169" value="UserWallet" style="shape=rhombus;double=1;perimeter=rhombusPerimeter;whiteSpace=wrap;html=1;align=center;" parent="1" vertex="1">
          <mxGeometry x="170" y="-110" width="120" height="60" as="geometry" />
        </mxCell>
        <mxCell id="6ZVJv1t7tKq6ZZ9v9irW-171" value="" style="shape=link;html=1;rounded=0;exitX=1;exitY=0.5;exitDx=0;exitDy=0;entryX=0;entryY=0.5;entryDx=0;entryDy=0;" parent="1" source="6ZVJv1t7tKq6ZZ9v9irW-146" target="6ZVJv1t7tKq6ZZ9v9irW-169" edge="1">
          <mxGeometry relative="1" as="geometry">
            <mxPoint x="140" y="-81" as="sourcePoint" />
            <mxPoint x="170" y="-80.56" as="targetPoint" />
          </mxGeometry>
        </mxCell>
        <mxCell id="6ZVJv1t7tKq6ZZ9v9irW-172" value="1" style="resizable=0;html=1;whiteSpace=wrap;align=right;verticalAlign=bottom;" parent="6ZVJv1t7tKq6ZZ9v9irW-171" connectable="0" vertex="1">
          <mxGeometry x="1" relative="1" as="geometry" />
        </mxCell>
        <mxCell id="6ZVJv1t7tKq6ZZ9v9irW-178" value="Concert" style="shape=ext;margin=3;double=1;whiteSpace=wrap;html=1;align=center;rounded=1;shadow=0;dashed=0;strokeColor=default;strokeWidth=2;verticalAlign=middle;arcSize=4;fontFamily=Helvetica;fontSize=14;fontColor=default;fontStyle=0;fillColor=default;" parent="1" vertex="1">
          <mxGeometry x="-710" y="460" width="100" height="40" as="geometry" />
        </mxCell>
        <mxCell id="6ZVJv1t7tKq6ZZ9v9irW-187" style="edgeStyle=orthogonalEdgeStyle;rounded=0;orthogonalLoop=1;jettySize=auto;html=1;exitX=1;exitY=0.5;exitDx=0;exitDy=0;entryX=0;entryY=0.5;entryDx=0;entryDy=0;fontFamily=Helvetica;fontSize=14;fontColor=default;fontStyle=0;" parent="1" source="6ZVJv1t7tKq6ZZ9v9irW-179" target="6ZVJv1t7tKq6ZZ9v9irW-178" edge="1">
          <mxGeometry relative="1" as="geometry" />
        </mxCell>
        <mxCell id="6ZVJv1t7tKq6ZZ9v9irW-179" value="&lt;span style=&quot;border-bottom: 1px dotted&quot;&gt;concert_id&lt;/span&gt;" style="ellipse;whiteSpace=wrap;html=1;align=center;rounded=1;shadow=0;dashed=0;strokeColor=default;strokeWidth=2;verticalAlign=middle;arcSize=4;fontFamily=Helvetica;fontSize=14;fontColor=default;fontStyle=0;fillColor=default;" parent="1" vertex="1">
          <mxGeometry x="-830" y="460.5" width="100" height="40" as="geometry" />
        </mxCell>
        <mxCell id="6ZVJv1t7tKq6ZZ9v9irW-188" style="edgeStyle=orthogonalEdgeStyle;rounded=0;orthogonalLoop=1;jettySize=auto;html=1;exitX=1;exitY=0.5;exitDx=0;exitDy=0;entryX=0.25;entryY=1;entryDx=0;entryDy=0;fontFamily=Helvetica;fontSize=14;fontColor=default;fontStyle=0;" parent="1" source="6ZVJv1t7tKq6ZZ9v9irW-181" target="6ZVJv1t7tKq6ZZ9v9irW-178" edge="1">
          <mxGeometry relative="1" as="geometry" />
        </mxCell>
        <mxCell id="6ZVJv1t7tKq6ZZ9v9irW-181" value="title" style="ellipse;whiteSpace=wrap;html=1;align=center;rounded=1;shadow=0;dashed=0;strokeColor=default;strokeWidth=2;verticalAlign=middle;arcSize=4;fontFamily=Helvetica;fontSize=14;fontColor=default;fontStyle=0;fillColor=default;" parent="1" vertex="1">
          <mxGeometry x="-830" y="510.5" width="100" height="40" as="geometry" />
        </mxCell>
        <mxCell id="6ZVJv1t7tKq6ZZ9v9irW-186" style="edgeStyle=orthogonalEdgeStyle;rounded=0;orthogonalLoop=1;jettySize=auto;html=1;exitX=1;exitY=0.5;exitDx=0;exitDy=0;entryX=0.25;entryY=0;entryDx=0;entryDy=0;fontFamily=Helvetica;fontSize=14;fontColor=default;fontStyle=0;" parent="1" source="6ZVJv1t7tKq6ZZ9v9irW-182" target="6ZVJv1t7tKq6ZZ9v9irW-178" edge="1">
          <mxGeometry relative="1" as="geometry" />
        </mxCell>
        <mxCell id="6ZVJv1t7tKq6ZZ9v9irW-182" value="date" style="ellipse;whiteSpace=wrap;html=1;align=center;rounded=1;shadow=0;dashed=0;strokeColor=default;strokeWidth=2;verticalAlign=middle;arcSize=4;fontFamily=Helvetica;fontSize=14;fontColor=default;fontStyle=0;fillColor=default;" parent="1" vertex="1">
          <mxGeometry x="-830" y="408" width="100" height="40" as="geometry" />
        </mxCell>
        <mxCell id="6ZVJv1t7tKq6ZZ9v9irW-309" style="edgeStyle=orthogonalEdgeStyle;rounded=0;orthogonalLoop=1;jettySize=auto;html=1;exitX=0.5;exitY=1;exitDx=0;exitDy=0;entryX=0.5;entryY=0;entryDx=0;entryDy=0;fontFamily=Helvetica;fontSize=14;fontColor=default;fontStyle=0;" parent="1" source="6ZVJv1t7tKq6ZZ9v9irW-183" target="6ZVJv1t7tKq6ZZ9v9irW-178" edge="1">
          <mxGeometry relative="1" as="geometry" />
        </mxCell>
        <mxCell id="6ZVJv1t7tKq6ZZ9v9irW-183" value="price" style="ellipse;whiteSpace=wrap;html=1;align=center;rounded=1;shadow=0;dashed=0;strokeColor=default;strokeWidth=2;verticalAlign=middle;arcSize=4;fontFamily=Helvetica;fontSize=14;fontColor=default;fontStyle=0;fillColor=default;" parent="1" vertex="1">
          <mxGeometry x="-710" y="377.5" width="100" height="40" as="geometry" />
        </mxCell>
        <mxCell id="6ZVJv1t7tKq6ZZ9v9irW-308" style="edgeStyle=orthogonalEdgeStyle;rounded=0;orthogonalLoop=1;jettySize=auto;html=1;entryX=0.5;entryY=1;entryDx=0;entryDy=0;fontFamily=Helvetica;fontSize=14;fontColor=default;fontStyle=0;" parent="1" source="6ZVJv1t7tKq6ZZ9v9irW-184" target="6ZVJv1t7tKq6ZZ9v9irW-178" edge="1">
          <mxGeometry relative="1" as="geometry" />
        </mxCell>
        <mxCell id="6ZVJv1t7tKq6ZZ9v9irW-184" value="is_canceled" style="ellipse;whiteSpace=wrap;html=1;align=center;rounded=1;shadow=0;dashed=0;strokeColor=default;strokeWidth=2;verticalAlign=middle;arcSize=4;fontFamily=Helvetica;fontSize=14;fontColor=default;fontStyle=0;fillColor=default;" parent="1" vertex="1">
          <mxGeometry x="-710" y="545" width="100" height="40" as="geometry" />
        </mxCell>
        <mxCell id="6ZVJv1t7tKq6ZZ9v9irW-193" style="edgeStyle=orthogonalEdgeStyle;rounded=0;orthogonalLoop=1;jettySize=auto;html=1;exitX=1;exitY=0.5;exitDx=0;exitDy=0;entryX=0;entryY=0.25;entryDx=0;entryDy=0;fontFamily=Helvetica;fontSize=14;fontColor=default;fontStyle=0;" parent="1" source="6ZVJv1t7tKq6ZZ9v9irW-190" target="6ZVJv1t7tKq6ZZ9v9irW-91" edge="1">
          <mxGeometry relative="1" as="geometry" />
        </mxCell>
        <mxCell id="6ZVJv1t7tKq6ZZ9v9irW-190" value="Concerts" style="shape=rhombus;double=1;perimeter=rhombusPerimeter;whiteSpace=wrap;html=1;align=center;rounded=1;shadow=0;dashed=0;strokeColor=default;strokeWidth=2;verticalAlign=middle;arcSize=4;fontFamily=Helvetica;fontSize=14;fontColor=default;fontStyle=0;fillColor=default;" parent="1" vertex="1">
          <mxGeometry x="-550" y="450" width="120" height="60" as="geometry" />
        </mxCell>
        <mxCell id="6ZVJv1t7tKq6ZZ9v9irW-191" value="" style="shape=link;html=1;rounded=0;fontFamily=Helvetica;fontSize=14;fontColor=default;fontStyle=0;entryX=0;entryY=0.5;entryDx=0;entryDy=0;exitX=1;exitY=0.5;exitDx=0;exitDy=0;" parent="1" source="6ZVJv1t7tKq6ZZ9v9irW-178" target="6ZVJv1t7tKq6ZZ9v9irW-190" edge="1">
          <mxGeometry relative="1" as="geometry">
            <mxPoint x="-620" y="550" as="sourcePoint" />
            <mxPoint x="-460" y="550" as="targetPoint" />
          </mxGeometry>
        </mxCell>
        <mxCell id="6ZVJv1t7tKq6ZZ9v9irW-192" value="" style="resizable=0;html=1;whiteSpace=wrap;align=right;verticalAlign=bottom;rounded=1;shadow=0;dashed=0;strokeColor=default;strokeWidth=2;arcSize=4;fontFamily=Helvetica;fontSize=14;fontColor=default;fontStyle=0;fillColor=default;" parent="6ZVJv1t7tKq6ZZ9v9irW-191" connectable="0" vertex="1">
          <mxGeometry x="1" relative="1" as="geometry" />
        </mxCell>
        <mxCell id="6ZVJv1t7tKq6ZZ9v9irW-197" value="Tickets" style="shape=ext;margin=3;double=1;whiteSpace=wrap;html=1;align=center;rounded=1;shadow=0;dashed=0;strokeColor=default;strokeWidth=2;verticalAlign=middle;arcSize=4;fontFamily=Helvetica;fontSize=14;fontColor=default;fontStyle=0;fillColor=default;" parent="1" vertex="1">
          <mxGeometry x="-430" y="245" width="100" height="40" as="geometry" />
        </mxCell>
        <mxCell id="6ZVJv1t7tKq6ZZ9v9irW-201" style="edgeStyle=orthogonalEdgeStyle;rounded=0;orthogonalLoop=1;jettySize=auto;html=1;exitX=1;exitY=0.5;exitDx=0;exitDy=0;entryX=0;entryY=0.5;entryDx=0;entryDy=0;fontFamily=Helvetica;fontSize=14;fontColor=default;fontStyle=0;" parent="1" source="6ZVJv1t7tKq6ZZ9v9irW-198" target="C-vyLk0tnHw3VtMMgP7b-24" edge="1">
          <mxGeometry relative="1" as="geometry" />
        </mxCell>
        <mxCell id="6ZVJv1t7tKq6ZZ9v9irW-198" value="BuyTicket" style="shape=rhombus;double=1;perimeter=rhombusPerimeter;whiteSpace=wrap;html=1;align=center;rounded=1;shadow=0;dashed=0;strokeColor=default;strokeWidth=2;verticalAlign=middle;arcSize=4;fontFamily=Helvetica;fontSize=14;fontColor=default;fontStyle=0;fillColor=default;" parent="1" vertex="1">
          <mxGeometry x="-280" y="235" width="120" height="60" as="geometry" />
        </mxCell>
        <mxCell id="6ZVJv1t7tKq6ZZ9v9irW-199" value="" style="shape=link;html=1;rounded=0;fontFamily=Helvetica;fontSize=14;fontColor=default;fontStyle=0;exitX=1;exitY=0.5;exitDx=0;exitDy=0;entryX=0;entryY=0.5;entryDx=0;entryDy=0;" parent="1" source="6ZVJv1t7tKq6ZZ9v9irW-197" target="6ZVJv1t7tKq6ZZ9v9irW-198" edge="1">
          <mxGeometry relative="1" as="geometry">
            <mxPoint x="-450" y="264.40999999999997" as="sourcePoint" />
            <mxPoint x="-290" y="264.40999999999997" as="targetPoint" />
          </mxGeometry>
        </mxCell>
        <mxCell id="6ZVJv1t7tKq6ZZ9v9irW-200" value="" style="resizable=0;html=1;whiteSpace=wrap;align=right;verticalAlign=bottom;rounded=1;shadow=0;dashed=0;strokeColor=default;strokeWidth=2;arcSize=4;fontFamily=Helvetica;fontSize=14;fontColor=default;fontStyle=0;fillColor=default;" parent="6ZVJv1t7tKq6ZZ9v9irW-199" connectable="0" vertex="1">
          <mxGeometry x="1" relative="1" as="geometry" />
        </mxCell>
        <mxCell id="6ZVJv1t7tKq6ZZ9v9irW-202" value="" style="edgeStyle=entityRelationEdgeStyle;fontSize=12;html=1;endArrow=ERzeroToMany;startArrow=ERmandOne;rounded=0;fontFamily=Helvetica;fontColor=default;fontStyle=0;entryX=0;entryY=0.5;entryDx=0;entryDy=0;" parent="1" target="6ZVJv1t7tKq6ZZ9v9irW-197" edge="1">
          <mxGeometry width="100" height="100" relative="1" as="geometry">
            <mxPoint x="-490" y="450" as="sourcePoint" />
            <mxPoint x="-440" y="320" as="targetPoint" />
          </mxGeometry>
        </mxCell>
        <mxCell id="6ZVJv1t7tKq6ZZ9v9irW-207" style="edgeStyle=orthogonalEdgeStyle;rounded=0;orthogonalLoop=1;jettySize=auto;html=1;exitX=1;exitY=1;exitDx=0;exitDy=0;entryX=0.25;entryY=0;entryDx=0;entryDy=0;fontFamily=Helvetica;fontSize=14;fontColor=default;fontStyle=0;" parent="1" source="6ZVJv1t7tKq6ZZ9v9irW-203" target="6ZVJv1t7tKq6ZZ9v9irW-197" edge="1">
          <mxGeometry relative="1" as="geometry" />
        </mxCell>
        <mxCell id="6ZVJv1t7tKq6ZZ9v9irW-203" value="&lt;span style=&quot;border-bottom: 1px dotted&quot;&gt;expiry_date&lt;/span&gt;" style="ellipse;whiteSpace=wrap;html=1;align=center;rounded=1;shadow=0;dashed=0;strokeColor=default;strokeWidth=2;verticalAlign=middle;arcSize=4;fontFamily=Helvetica;fontSize=14;fontColor=default;fontStyle=0;fillColor=default;" parent="1" vertex="1">
          <mxGeometry x="-560" y="155" width="100" height="40" as="geometry" />
        </mxCell>
        <mxCell id="6ZVJv1t7tKq6ZZ9v9irW-206" style="edgeStyle=orthogonalEdgeStyle;rounded=0;orthogonalLoop=1;jettySize=auto;html=1;exitX=0.5;exitY=1;exitDx=0;exitDy=0;entryX=0.5;entryY=0;entryDx=0;entryDy=0;fontFamily=Helvetica;fontSize=14;fontColor=default;fontStyle=0;" parent="1" source="6ZVJv1t7tKq6ZZ9v9irW-204" target="6ZVJv1t7tKq6ZZ9v9irW-197" edge="1">
          <mxGeometry relative="1" as="geometry" />
        </mxCell>
        <mxCell id="6ZVJv1t7tKq6ZZ9v9irW-204" value="&lt;span style=&quot;border-bottom: 1px dotted&quot;&gt;is_expired&amp;nbsp;&lt;/span&gt;" style="ellipse;whiteSpace=wrap;html=1;align=center;rounded=1;shadow=0;dashed=0;strokeColor=default;strokeWidth=2;verticalAlign=middle;arcSize=4;fontFamily=Helvetica;fontSize=14;fontColor=default;fontStyle=0;fillColor=default;" parent="1" vertex="1">
          <mxGeometry x="-430" y="140" width="100" height="40" as="geometry" />
        </mxCell>
        <mxCell id="6ZVJv1t7tKq6ZZ9v9irW-208" style="edgeStyle=orthogonalEdgeStyle;rounded=0;orthogonalLoop=1;jettySize=auto;html=1;exitX=0;exitY=1;exitDx=0;exitDy=0;entryX=0.75;entryY=0;entryDx=0;entryDy=0;fontFamily=Helvetica;fontSize=14;fontColor=default;fontStyle=0;" parent="1" source="6ZVJv1t7tKq6ZZ9v9irW-205" target="6ZVJv1t7tKq6ZZ9v9irW-197" edge="1">
          <mxGeometry relative="1" as="geometry" />
        </mxCell>
        <mxCell id="6ZVJv1t7tKq6ZZ9v9irW-205" value="&lt;span style=&quot;border-bottom: 1px dotted&quot;&gt;purchase_date&amp;nbsp;&lt;/span&gt;" style="ellipse;whiteSpace=wrap;html=1;align=center;rounded=1;shadow=0;dashed=0;strokeColor=default;strokeWidth=2;verticalAlign=middle;arcSize=4;fontFamily=Helvetica;fontSize=14;fontColor=default;fontStyle=0;fillColor=default;" parent="1" vertex="1">
          <mxGeometry x="-310" y="150" width="100" height="50" as="geometry" />
        </mxCell>
        <mxCell id="6ZVJv1t7tKq6ZZ9v9irW-224" value="FriendRequest" style="shape=rhombus;perimeter=rhombusPerimeter;whiteSpace=wrap;html=1;align=center;" parent="1" vertex="1">
          <mxGeometry x="1280" y="255" width="120" height="60" as="geometry" />
        </mxCell>
        <mxCell id="6ZVJv1t7tKq6ZZ9v9irW-225" value="" style="edgeStyle=entityRelationEdgeStyle;fontSize=12;html=1;endArrow=ERmany;rounded=0;exitX=0.5;exitY=0;exitDx=0;exitDy=0;entryX=1;entryY=0.5;entryDx=0;entryDy=0;" parent="1" source="6ZVJv1t7tKq6ZZ9v9irW-224" target="6ZVJv1t7tKq6ZZ9v9irW-11" edge="1">
          <mxGeometry width="100" height="100" relative="1" as="geometry">
            <mxPoint x="660" y="255" as="sourcePoint" />
            <mxPoint x="590" y="235" as="targetPoint" />
            <Array as="points">
              <mxPoint x="730" y="235" />
              <mxPoint x="730" y="235" />
            </Array>
          </mxGeometry>
        </mxCell>
        <mxCell id="6ZVJv1t7tKq6ZZ9v9irW-226" value="sender_request_id" style="edgeLabel;html=1;align=center;verticalAlign=middle;resizable=0;points=[];" parent="6ZVJv1t7tKq6ZZ9v9irW-225" vertex="1" connectable="0">
          <mxGeometry x="-0.0718" y="-1" relative="1" as="geometry">
            <mxPoint as="offset" />
          </mxGeometry>
        </mxCell>
        <mxCell id="6ZVJv1t7tKq6ZZ9v9irW-227" value="" style="edgeStyle=entityRelationEdgeStyle;fontSize=12;html=1;endArrow=ERmany;rounded=0;entryX=1;entryY=0.5;entryDx=0;entryDy=0;exitX=0.5;exitY=1;exitDx=0;exitDy=0;" parent="1" source="6ZVJv1t7tKq6ZZ9v9irW-224" target="6ZVJv1t7tKq6ZZ9v9irW-17" edge="1">
          <mxGeometry width="100" height="100" relative="1" as="geometry">
            <mxPoint x="530" y="415" as="sourcePoint" />
            <mxPoint x="590" y="315" as="targetPoint" />
          </mxGeometry>
        </mxCell>
        <mxCell id="6ZVJv1t7tKq6ZZ9v9irW-228" value="reciver_request_id" style="edgeLabel;html=1;align=center;verticalAlign=middle;resizable=0;points=[];" parent="6ZVJv1t7tKq6ZZ9v9irW-227" vertex="1" connectable="0">
          <mxGeometry x="-0.1056" y="-2" relative="1" as="geometry">
            <mxPoint as="offset" />
          </mxGeometry>
        </mxCell>
        <mxCell id="6ZVJv1t7tKq6ZZ9v9irW-230" value="1-status&lt;div&gt;2-request_date&lt;/div&gt;" style="whiteSpace=wrap;html=1;rounded=1;shadow=0;dashed=0;strokeColor=default;strokeWidth=2;align=center;verticalAlign=middle;arcSize=4;fontFamily=Helvetica;fontSize=14;fontColor=default;fontStyle=0;fillColor=default;" parent="1" vertex="1">
          <mxGeometry x="1290" y="350" width="120" height="60" as="geometry" />
        </mxCell>
        <mxCell id="6ZVJv1t7tKq6ZZ9v9irW-250" style="edgeStyle=orthogonalEdgeStyle;rounded=0;orthogonalLoop=1;jettySize=auto;html=1;exitX=0;exitY=0.5;exitDx=0;exitDy=0;entryX=1;entryY=0;entryDx=0;entryDy=0;fontFamily=Helvetica;fontSize=14;fontColor=default;fontStyle=0;" parent="1" source="6ZVJv1t7tKq6ZZ9v9irW-255" target="6ZVJv1t7tKq6ZZ9v9irW-224" edge="1">
          <mxGeometry relative="1" as="geometry">
            <mxPoint x="1175.28" y="140" as="sourcePoint" />
          </mxGeometry>
        </mxCell>
        <mxCell id="6ZVJv1t7tKq6ZZ9v9irW-253" value="" style="shape=link;html=1;rounded=0;fontFamily=Helvetica;fontSize=14;fontColor=default;fontStyle=0;exitX=1;exitY=0.5;exitDx=0;exitDy=0;entryX=0;entryY=0.5;entryDx=0;entryDy=0;" parent="1" source="6ZVJv1t7tKq6ZZ9v9irW-255" target="6ZVJv1t7tKq6ZZ9v9irW-252" edge="1">
          <mxGeometry relative="1" as="geometry">
            <mxPoint x="1160" y="140" as="sourcePoint" />
            <mxPoint x="1355" y="138.57" as="targetPoint" />
          </mxGeometry>
        </mxCell>
        <mxCell id="6ZVJv1t7tKq6ZZ9v9irW-254" value="" style="resizable=0;html=1;whiteSpace=wrap;align=right;verticalAlign=bottom;rounded=1;shadow=0;dashed=0;strokeColor=default;strokeWidth=2;arcSize=4;fontFamily=Helvetica;fontSize=14;fontColor=default;fontStyle=0;fillColor=default;" parent="6ZVJv1t7tKq6ZZ9v9irW-253" connectable="0" vertex="1">
          <mxGeometry x="1" relative="1" as="geometry" />
        </mxCell>
        <mxCell id="6ZVJv1t7tKq6ZZ9v9irW-255" value="SendMessage" style="shape=rhombus;double=1;perimeter=rhombusPerimeter;whiteSpace=wrap;html=1;align=center;rounded=1;shadow=0;dashed=0;strokeColor=default;strokeWidth=2;verticalAlign=middle;arcSize=4;fontFamily=Helvetica;fontSize=14;fontColor=default;fontStyle=0;fillColor=default;" parent="1" vertex="1">
          <mxGeometry x="1560.28" y="70" width="160" height="60" as="geometry" />
        </mxCell>
        <mxCell id="6ZVJv1t7tKq6ZZ9v9irW-260" value="Likes" style="shape=rhombus;perimeter=rhombusPerimeter;whiteSpace=wrap;html=1;align=center;rounded=1;shadow=0;dashed=0;strokeColor=default;strokeWidth=2;verticalAlign=middle;arcSize=4;fontFamily=Helvetica;fontSize=14;fontColor=default;fontStyle=0;fillColor=default;" parent="1" vertex="1">
          <mxGeometry x="240" y="535" width="120" height="60" as="geometry" />
        </mxCell>
        <mxCell id="6ZVJv1t7tKq6ZZ9v9irW-265" value="" style="endArrow=none;html=1;rounded=0;fontFamily=Helvetica;fontSize=14;fontColor=default;fontStyle=0;entryX=0.5;entryY=1;entryDx=0;entryDy=0;exitX=0.75;exitY=0;exitDx=0;exitDy=0;" parent="1" source="6ZVJv1t7tKq6ZZ9v9irW-29" target="6ZVJv1t7tKq6ZZ9v9irW-260" edge="1">
          <mxGeometry relative="1" as="geometry">
            <mxPoint x="80" y="645" as="sourcePoint" />
            <mxPoint x="90" y="574.23" as="targetPoint" />
          </mxGeometry>
        </mxCell>
        <mxCell id="6ZVJv1t7tKq6ZZ9v9irW-276" value="" style="shape=partialRectangle;fillColor=none;align=left;verticalAlign=middle;strokeColor=none;spacingLeft=34;rotatable=0;points=[[0,0.5],[1,0.5]];portConstraint=eastwest;dropTarget=0;rounded=1;shadow=0;dashed=0;strokeWidth=2;arcSize=4;fontFamily=Helvetica;fontSize=14;fontColor=default;fontStyle=0;" parent="1" vertex="1">
          <mxGeometry x="1310" y="315" width="90" height="35" as="geometry" />
        </mxCell>
        <mxCell id="6ZVJv1t7tKq6ZZ9v9irW-277" value="" style="shape=partialRectangle;top=0;left=0;bottom=0;fillColor=none;stokeWidth=1;dashed=1;align=left;verticalAlign=middle;spacingLeft=4;spacingRight=4;overflow=hidden;rotatable=0;points=[];portConstraint=eastwest;part=1;rounded=1;shadow=0;strokeColor=default;strokeWidth=2;arcSize=4;fontFamily=Helvetica;fontSize=14;fontColor=default;fontStyle=0;" parent="6ZVJv1t7tKq6ZZ9v9irW-276" vertex="1" connectable="0">
          <mxGeometry width="30" height="35" as="geometry" />
        </mxCell>
        <mxCell id="6ZVJv1t7tKq6ZZ9v9irW-281" value="" style="endArrow=none;html=1;rounded=0;fontFamily=Helvetica;fontSize=14;fontColor=default;fontStyle=0;exitX=0.5;exitY=0;exitDx=0;exitDy=0;entryX=0.5;entryY=1;entryDx=0;entryDy=0;" parent="1" source="6ZVJv1t7tKq6ZZ9v9irW-260" target="C-vyLk0tnHw3VtMMgP7b-23" edge="1">
          <mxGeometry relative="1" as="geometry">
            <mxPoint x="230" y="490" as="sourcePoint" />
            <mxPoint x="390" y="490" as="targetPoint" />
          </mxGeometry>
        </mxCell>
        <mxCell id="6ZVJv1t7tKq6ZZ9v9irW-284" value="Comments" style="shape=rhombus;perimeter=rhombusPerimeter;whiteSpace=wrap;html=1;align=center;rounded=1;shadow=0;dashed=0;strokeColor=default;strokeWidth=2;verticalAlign=middle;arcSize=4;fontFamily=Helvetica;fontSize=14;fontColor=default;fontStyle=0;fillColor=default;" parent="1" vertex="1">
          <mxGeometry x="30" y="485" width="125" height="60" as="geometry" />
        </mxCell>
        <mxCell id="6ZVJv1t7tKq6ZZ9v9irW-286" value="" style="shape=partialRectangle;fillColor=none;align=left;verticalAlign=middle;strokeColor=none;spacingLeft=34;rotatable=0;points=[[0,0.5],[1,0.5]];portConstraint=eastwest;dropTarget=0;rounded=1;shadow=0;dashed=0;strokeWidth=2;arcSize=4;fontFamily=Helvetica;fontSize=14;fontColor=default;fontStyle=0;" parent="1" vertex="1">
          <mxGeometry x="70" y="545" width="80" height="40" as="geometry" />
        </mxCell>
        <mxCell id="6ZVJv1t7tKq6ZZ9v9irW-287" value="" style="shape=partialRectangle;top=0;left=0;bottom=0;fillColor=none;stokeWidth=1;dashed=1;align=left;verticalAlign=middle;spacingLeft=4;spacingRight=4;overflow=hidden;rotatable=0;points=[];portConstraint=eastwest;part=1;rounded=1;shadow=0;strokeColor=default;strokeWidth=2;arcSize=4;fontFamily=Helvetica;fontSize=14;fontColor=default;fontStyle=0;" parent="6ZVJv1t7tKq6ZZ9v9irW-286" vertex="1" connectable="0">
          <mxGeometry width="26.666666666666664" height="40" as="geometry" />
        </mxCell>
        <mxCell id="6ZVJv1t7tKq6ZZ9v9irW-289" value="CommentText&lt;div&gt;CommentDate&lt;br&gt;&lt;div&gt;ItemType&lt;br&gt;&lt;/div&gt;&lt;/div&gt;" style="whiteSpace=wrap;html=1;align=center;rounded=1;shadow=0;dashed=0;strokeColor=default;strokeWidth=2;verticalAlign=middle;arcSize=4;fontFamily=Helvetica;fontSize=14;fontColor=default;fontStyle=0;fillColor=default;" parent="1" vertex="1">
          <mxGeometry x="60" y="565" width="90" height="55" as="geometry" />
        </mxCell>
        <mxCell id="6ZVJv1t7tKq6ZZ9v9irW-302" value="" style="endArrow=none;html=1;rounded=0;fontFamily=Helvetica;fontSize=14;fontColor=default;fontStyle=0;exitX=0.5;exitY=0;exitDx=0;exitDy=0;entryX=0.5;entryY=1;entryDx=0;entryDy=0;" parent="1" source="6ZVJv1t7tKq6ZZ9v9irW-284" target="C-vyLk0tnHw3VtMMgP7b-23" edge="1">
          <mxGeometry relative="1" as="geometry">
            <mxPoint x="40" y="520" as="sourcePoint" />
            <mxPoint x="200" y="520" as="targetPoint" />
          </mxGeometry>
        </mxCell>
        <mxCell id="6ZVJv1t7tKq6ZZ9v9irW-303" value="" style="endArrow=none;html=1;rounded=0;fontFamily=Helvetica;fontSize=14;fontColor=default;fontStyle=0;entryX=0;entryY=0.5;entryDx=0;entryDy=0;exitX=0.25;exitY=0;exitDx=0;exitDy=0;" parent="1" source="6ZVJv1t7tKq6ZZ9v9irW-29" target="6ZVJv1t7tKq6ZZ9v9irW-284" edge="1">
          <mxGeometry relative="1" as="geometry">
            <mxPoint x="-80" y="619.72" as="sourcePoint" />
            <mxPoint x="80" y="619.72" as="targetPoint" />
          </mxGeometry>
        </mxCell>
        <mxCell id="6ZVJv1t7tKq6ZZ9v9irW-310" value="FavoriteList" style="shape=rhombus;perimeter=rhombusPerimeter;whiteSpace=wrap;html=1;align=center;rounded=1;shadow=0;dashed=0;strokeColor=default;strokeWidth=2;verticalAlign=middle;arcSize=4;fontFamily=Helvetica;fontSize=14;fontColor=default;fontStyle=0;fillColor=default;" parent="1" vertex="1">
          <mxGeometry x="510" y="570" width="120" height="60" as="geometry" />
        </mxCell>
        <mxCell id="6ZVJv1t7tKq6ZZ9v9irW-312" value="" style="endArrow=none;html=1;rounded=0;fontFamily=Helvetica;fontSize=14;fontColor=default;fontStyle=0;exitX=1;exitY=0.5;exitDx=0;exitDy=0;entryX=0;entryY=0.5;entryDx=0;entryDy=0;" parent="1" source="6ZVJv1t7tKq6ZZ9v9irW-310" target="6ZVJv1t7tKq6ZZ9v9irW-70" edge="1">
          <mxGeometry relative="1" as="geometry">
            <mxPoint x="630" y="669.17" as="sourcePoint" />
            <mxPoint x="790" y="669.17" as="targetPoint" />
          </mxGeometry>
        </mxCell>
        <mxCell id="6ZVJv1t7tKq6ZZ9v9irW-313" value="" style="endArrow=none;html=1;rounded=0;fontFamily=Helvetica;fontSize=14;fontColor=default;fontStyle=0;entryX=0;entryY=0.5;entryDx=0;entryDy=0;exitX=1;exitY=0;exitDx=0;exitDy=0;" parent="1" source="6ZVJv1t7tKq6ZZ9v9irW-29" target="6ZVJv1t7tKq6ZZ9v9irW-310" edge="1">
          <mxGeometry relative="1" as="geometry">
            <mxPoint x="540" y="669.17" as="sourcePoint" />
            <mxPoint x="700" y="669.17" as="targetPoint" />
          </mxGeometry>
        </mxCell>
        <mxCell id="6ZVJv1t7tKq6ZZ9v9irW-314" value="" style="shape=link;html=1;rounded=0;fontFamily=Helvetica;fontSize=14;fontColor=default;fontStyle=0;exitX=0.5;exitY=0;exitDx=0;exitDy=0;entryX=0.75;entryY=1;entryDx=0;entryDy=0;" parent="1" source="6ZVJv1t7tKq6ZZ9v9irW-310" target="C-vyLk0tnHw3VtMMgP7b-23" edge="1">
          <mxGeometry relative="1" as="geometry">
            <mxPoint x="480" y="510.5" as="sourcePoint" />
            <mxPoint x="640" y="510.5" as="targetPoint" />
          </mxGeometry>
        </mxCell>
        <mxCell id="6ZVJv1t7tKq6ZZ9v9irW-315" value="" style="resizable=0;html=1;whiteSpace=wrap;align=left;verticalAlign=bottom;rounded=1;shadow=0;dashed=0;strokeColor=default;strokeWidth=2;arcSize=4;fontFamily=Helvetica;fontSize=14;fontColor=default;fontStyle=0;fillColor=default;" parent="6ZVJv1t7tKq6ZZ9v9irW-314" connectable="0" vertex="1">
          <mxGeometry x="-1" relative="1" as="geometry" />
        </mxCell>
        <mxCell id="6ZVJv1t7tKq6ZZ9v9irW-316" value="" style="resizable=0;html=1;whiteSpace=wrap;align=right;verticalAlign=bottom;rounded=1;shadow=0;dashed=0;strokeColor=default;strokeWidth=2;arcSize=4;fontFamily=Helvetica;fontSize=14;fontColor=default;fontStyle=0;fillColor=default;" parent="6ZVJv1t7tKq6ZZ9v9irW-314" connectable="0" vertex="1">
          <mxGeometry x="1" relative="1" as="geometry" />
        </mxCell>
        <mxCell id="Ssw8x8pJziIWU6LltiBB-1" value="" style="endArrow=none;html=1;rounded=0;exitX=0.5;exitY=0;exitDx=0;exitDy=0;entryX=0;entryY=0.5;entryDx=0;entryDy=0;" parent="1" source="6ZVJv1t7tKq6ZZ9v9irW-117" target="6ZVJv1t7tKq6ZZ9v9irW-284" edge="1">
          <mxGeometry width="50" height="50" relative="1" as="geometry">
            <mxPoint x="-285" y="710" as="sourcePoint" />
            <mxPoint x="-235" y="660" as="targetPoint" />
          </mxGeometry>
        </mxCell>
        <mxCell id="Ssw8x8pJziIWU6LltiBB-2" value="" style="endArrow=none;html=1;rounded=0;exitX=0.75;exitY=0;exitDx=0;exitDy=0;entryX=0;entryY=0.5;entryDx=0;entryDy=0;" parent="1" source="6ZVJv1t7tKq6ZZ9v9irW-117" target="6ZVJv1t7tKq6ZZ9v9irW-260" edge="1">
          <mxGeometry width="50" height="50" relative="1" as="geometry">
            <mxPoint x="-240" y="775" as="sourcePoint" />
            <mxPoint x="220" y="575" as="targetPoint" />
          </mxGeometry>
        </mxCell>
        <mxCell id="Ssw8x8pJziIWU6LltiBB-3" value="" style="endArrow=none;html=1;rounded=0;exitX=1;exitY=0.5;exitDx=0;exitDy=0;entryX=0;entryY=0.5;entryDx=0;entryDy=0;" parent="1" source="6ZVJv1t7tKq6ZZ9v9irW-284" target="6ZVJv1t7tKq6ZZ9v9irW-58" edge="1">
          <mxGeometry width="50" height="50" relative="1" as="geometry">
            <mxPoint x="160" y="520" as="sourcePoint" />
            <mxPoint x="300" y="500" as="targetPoint" />
          </mxGeometry>
        </mxCell>
        <mxCell id="Ssw8x8pJziIWU6LltiBB-4" value="" style="endArrow=none;html=1;rounded=0;exitX=1;exitY=0.5;exitDx=0;exitDy=0;entryX=0;entryY=0.5;entryDx=0;entryDy=0;" parent="1" source="6ZVJv1t7tKq6ZZ9v9irW-260" target="6ZVJv1t7tKq6ZZ9v9irW-58" edge="1">
          <mxGeometry width="50" height="50" relative="1" as="geometry">
            <mxPoint x="250" y="550" as="sourcePoint" />
            <mxPoint x="300" y="500" as="targetPoint" />
          </mxGeometry>
        </mxCell>
        <mxCell id="G4Bz_FFFTyuD_uJpEUWM-2" value="" style="shape=partialRectangle;fillColor=none;align=left;verticalAlign=middle;strokeColor=none;spacingLeft=34;rotatable=0;points=[[0,0.5],[1,0.5]];portConstraint=eastwest;dropTarget=0;rounded=1;shadow=0;dashed=0;strokeWidth=2;arcSize=4;fontFamily=Helvetica;fontSize=14;fontColor=default;fontStyle=0;" parent="1" vertex="1">
          <mxGeometry x="265" y="595" width="80" height="40" as="geometry" />
        </mxCell>
        <mxCell id="G4Bz_FFFTyuD_uJpEUWM-3" value="" style="shape=partialRectangle;top=0;left=0;bottom=0;fillColor=none;stokeWidth=1;dashed=1;align=left;verticalAlign=middle;spacingLeft=4;spacingRight=4;overflow=hidden;rotatable=0;points=[];portConstraint=eastwest;part=1;rounded=1;shadow=0;strokeColor=default;strokeWidth=2;arcSize=4;fontFamily=Helvetica;fontSize=14;fontColor=default;fontStyle=0;" parent="G4Bz_FFFTyuD_uJpEUWM-2" vertex="1" connectable="0">
          <mxGeometry width="26.666666666666664" height="40" as="geometry" />
        </mxCell>
        <mxCell id="G4Bz_FFFTyuD_uJpEUWM-4" value="&lt;span style=&quot;background-color: initial;&quot;&gt;LikeDate&lt;/span&gt;&lt;div&gt;&lt;div&gt;ItemType&lt;br&gt;&lt;/div&gt;&lt;/div&gt;" style="whiteSpace=wrap;html=1;align=center;rounded=1;shadow=0;dashed=0;strokeColor=default;strokeWidth=2;verticalAlign=middle;arcSize=4;fontFamily=Helvetica;fontSize=14;fontColor=default;fontStyle=0;fillColor=default;" parent="1" vertex="1">
          <mxGeometry x="255" y="615" width="65" height="35" as="geometry" />
        </mxCell>
        <mxCell id="G4Bz_FFFTyuD_uJpEUWM-6" style="edgeStyle=orthogonalEdgeStyle;rounded=0;orthogonalLoop=1;jettySize=auto;html=1;entryX=0.75;entryY=1;entryDx=0;entryDy=0;" parent="1" source="G4Bz_FFFTyuD_uJpEUWM-5" target="6ZVJv1t7tKq6ZZ9v9irW-178" edge="1">
          <mxGeometry relative="1" as="geometry" />
        </mxCell>
        <mxCell id="G4Bz_FFFTyuD_uJpEUWM-5" value="NumberOfTkickets" style="ellipse;whiteSpace=wrap;html=1;align=center;" parent="1" vertex="1">
          <mxGeometry x="-600" y="510.5" width="110" height="49.5" as="geometry" />
        </mxCell>
        <mxCell id="G4Bz_FFFTyuD_uJpEUWM-8" style="edgeStyle=orthogonalEdgeStyle;rounded=0;orthogonalLoop=1;jettySize=auto;html=1;exitX=0.5;exitY=0;exitDx=0;exitDy=0;entryX=0.5;entryY=1;entryDx=0;entryDy=0;" parent="1" source="G4Bz_FFFTyuD_uJpEUWM-7" target="6ZVJv1t7tKq6ZZ9v9irW-252" edge="1">
          <mxGeometry relative="1" as="geometry" />
        </mxCell>
        <mxCell id="G4Bz_FFFTyuD_uJpEUWM-7" value="&lt;span style=&quot;border-bottom: 1px dotted&quot;&gt;SentDate&amp;nbsp;&lt;/span&gt;" style="ellipse;whiteSpace=wrap;html=1;align=center;" parent="1" vertex="1">
          <mxGeometry x="1875" y="180" width="100" height="40" as="geometry" />
        </mxCell>
        <mxCell id="G4Bz_FFFTyuD_uJpEUWM-11" style="edgeStyle=orthogonalEdgeStyle;rounded=0;orthogonalLoop=1;jettySize=auto;html=1;entryX=1;entryY=0.5;entryDx=0;entryDy=0;" parent="1" source="G4Bz_FFFTyuD_uJpEUWM-10" target="6ZVJv1t7tKq6ZZ9v9irW-252" edge="1">
          <mxGeometry relative="1" as="geometry" />
        </mxCell>
        <mxCell id="G4Bz_FFFTyuD_uJpEUWM-10" value="&lt;span style=&quot;text-align: left; text-wrap: nowrap;&quot;&gt;message_text&amp;nbsp;&lt;/span&gt;" style="ellipse;whiteSpace=wrap;html=1;align=center;" parent="1" vertex="1">
          <mxGeometry x="2030" y="80" width="90" height="40" as="geometry" />
        </mxCell>
        <mxCell id="G4Bz_FFFTyuD_uJpEUWM-12" value="" style="shape=partialRectangle;fillColor=none;align=left;verticalAlign=middle;strokeColor=none;spacingLeft=34;rotatable=0;points=[[0,0.5],[1,0.5]];portConstraint=eastwest;dropTarget=0;rounded=1;shadow=0;dashed=0;strokeWidth=2;arcSize=4;fontFamily=Helvetica;fontSize=14;fontColor=default;fontStyle=0;" parent="1" vertex="1">
          <mxGeometry x="540" y="630" width="80" height="40" as="geometry" />
        </mxCell>
        <mxCell id="G4Bz_FFFTyuD_uJpEUWM-13" value="" style="shape=partialRectangle;top=0;left=0;bottom=0;fillColor=none;stokeWidth=1;dashed=1;align=left;verticalAlign=middle;spacingLeft=4;spacingRight=4;overflow=hidden;rotatable=0;points=[];portConstraint=eastwest;part=1;rounded=1;shadow=0;strokeColor=default;strokeWidth=2;arcSize=4;fontFamily=Helvetica;fontSize=14;fontColor=default;fontStyle=0;" parent="G4Bz_FFFTyuD_uJpEUWM-12" vertex="1" connectable="0">
          <mxGeometry width="26.666666666666664" height="40" as="geometry" />
        </mxCell>
        <mxCell id="G4Bz_FFFTyuD_uJpEUWM-14" value="&lt;div&gt;&lt;div&gt;ItemType&lt;br&gt;&lt;/div&gt;&lt;/div&gt;" style="whiteSpace=wrap;html=1;align=center;rounded=1;shadow=0;dashed=0;strokeColor=default;strokeWidth=2;verticalAlign=middle;arcSize=4;fontFamily=Helvetica;fontSize=14;fontColor=default;fontStyle=0;fillColor=default;" parent="1" vertex="1">
          <mxGeometry x="530" y="650" width="65" height="35" as="geometry" />
        </mxCell>
      </root>
    </mxGraphModel>
  </diagram>
</mxfile>
